<svg width="632" height="120" viewBox="0 0 632 120" fill="none" xmlns="http://www.w3.org/2000/svg">
<path d="M191.748 107.84H177.108V17.84H191.748V25.46C193.708 22.74 196.108 20.54 198.948 18.86C201.828 17.14 205.188 16.28 209.028 16.28C213.428 16.28 217.528 17.1 221.328 18.74C225.128 20.38 228.468 22.66 231.348 25.58C234.268 28.46 236.528 31.8 238.128 35.6C239.768 39.4 240.588 43.48 240.588 47.84C240.588 52.2 239.768 56.3 238.128 60.14C236.528 63.98 234.268 67.36 231.348 70.28C228.468 73.16 225.128 75.42 221.328 77.06C217.528 78.7 213.428 79.52 209.028 79.52C205.188 79.52 201.828 78.68 198.948 77C196.108 75.28 193.708 73.06 191.748 70.34V107.84ZM208.848 30.38C205.808 30.38 203.088 31.18 200.688 32.78C198.288 34.34 196.408 36.44 195.048 39.08C193.688 41.72 193.008 44.64 193.008 47.84C193.008 51.04 193.688 53.98 195.048 56.66C196.408 59.3 198.288 61.42 200.688 63.02C203.088 64.58 205.808 65.36 208.848 65.36C211.928 65.36 214.748 64.58 217.308 63.02C219.868 61.46 221.908 59.36 223.428 56.72C224.948 54.04 225.708 51.08 225.708 47.84C225.708 44.64 224.948 41.72 223.428 39.08C221.908 36.44 219.868 34.34 217.308 32.78C214.788 31.18 211.968 30.38 208.848 30.38Z" fill="black"/>
<path d="M295.473 17.84H310.113V77.84H295.473L294.813 70.4C293.173 73.08 290.993 75.26 288.273 76.94C285.593 78.58 282.413 79.4 278.733 79.4C274.293 79.4 270.133 78.56 266.253 76.88C262.373 75.2 258.953 72.88 255.993 69.92C253.073 66.96 250.773 63.54 249.093 59.66C247.453 55.78 246.633 51.62 246.633 47.18C246.633 42.9 247.413 38.88 248.973 35.12C250.573 31.36 252.793 28.06 255.633 25.22C258.473 22.38 261.753 20.16 265.473 18.56C269.193 16.96 273.193 16.16 277.473 16.16C281.433 16.16 284.973 17.04 288.093 18.8C291.253 20.56 293.933 22.8 296.133 25.52L295.473 17.84ZM278.373 65.3C281.493 65.3 284.253 64.52 286.653 62.96C289.053 61.4 290.933 59.3 292.293 56.66C293.653 53.98 294.333 51.04 294.333 47.84C294.333 44.6 293.653 41.66 292.293 39.02C290.933 36.34 289.033 34.22 286.593 32.66C284.193 31.1 281.453 30.32 278.373 30.32C275.293 30.32 272.473 31.12 269.913 32.72C267.393 34.28 265.373 36.38 263.853 39.02C262.373 41.66 261.633 44.6 261.633 47.84C261.633 51.08 262.393 54.02 263.913 56.66C265.433 59.3 267.453 61.4 269.973 62.96C272.533 64.52 275.333 65.3 278.373 65.3Z" fill="black"/>
<path d="M322.129 77.84L322.069 17.84H336.709L336.769 23.18C338.809 21.02 341.249 19.32 344.089 18.08C346.929 16.8 349.989 16.16 353.269 16.16C355.469 16.16 357.669 16.48 359.869 17.12L354.109 31.88C352.589 31.28 351.069 30.98 349.549 30.98C347.189 30.98 345.029 31.56 343.069 32.72C341.149 33.84 339.609 35.38 338.449 37.34C337.329 39.26 336.769 41.4 336.769 43.76V77.84H322.129Z" fill="black"/>
<path d="M409.028 17.84H423.668V77.84H409.028L408.368 70.4C406.728 73.08 404.548 75.26 401.828 76.94C399.148 78.58 395.968 79.4 392.288 79.4C387.848 79.4 383.688 78.56 379.808 76.88C375.928 75.2 372.508 72.88 369.548 69.92C366.628 66.96 364.328 63.54 362.648 59.66C361.008 55.78 360.188 51.62 360.188 47.18C360.188 42.9 360.968 38.88 362.528 35.12C364.128 31.36 366.348 28.06 369.188 25.22C372.028 22.38 375.308 20.16 379.028 18.56C382.748 16.96 386.748 16.16 391.028 16.16C394.988 16.16 398.528 17.04 401.648 18.8C404.808 20.56 407.488 22.8 409.688 25.52L409.028 17.84ZM391.928 65.3C395.048 65.3 397.808 64.52 400.208 62.96C402.608 61.4 404.488 59.3 405.848 56.66C407.208 53.98 407.888 51.04 407.888 47.84C407.888 44.6 407.208 41.66 405.848 39.02C404.488 36.34 402.588 34.22 400.148 32.66C397.748 31.1 395.008 30.32 391.928 30.32C388.848 30.32 386.028 31.12 383.468 32.72C380.948 34.28 378.928 36.38 377.408 39.02C375.928 41.66 375.188 44.6 375.188 47.84C375.188 51.08 375.948 54.02 377.468 56.66C378.988 59.3 381.008 61.4 383.528 62.96C386.088 64.52 388.888 65.3 391.928 65.3Z" fill="black"/>
<path d="M478.972 17.84H493.612V78.98C493.612 83.3 492.732 87.22 490.972 90.74C489.212 94.3 486.812 97.34 483.772 99.86C480.732 102.42 477.252 104.38 473.332 105.74C469.412 107.14 465.292 107.84 460.972 107.84C456.772 107.84 452.732 106.98 448.852 105.26C444.972 103.54 441.532 101.18 438.532 98.18C435.572 95.22 433.312 91.84 431.752 88.04L445.132 81.98C445.932 84.18 447.132 86.1 448.732 87.74C450.372 89.42 452.252 90.72 454.372 91.64C456.492 92.6 458.692 93.08 460.972 93.08C463.292 93.08 465.512 92.76 467.632 92.12C469.792 91.48 471.732 90.54 473.452 89.3C475.172 88.1 476.512 86.62 477.472 84.86C478.472 83.14 478.972 81.18 478.972 78.98V70.52C477.092 73.16 474.732 75.3 471.892 76.94C469.052 78.58 465.772 79.4 462.052 79.4C457.732 79.4 453.692 78.58 449.932 76.94C446.172 75.3 442.852 73.04 439.972 70.16C437.132 67.24 434.892 63.88 433.252 60.08C431.652 56.28 430.852 52.2 430.852 47.84C430.852 43.48 431.652 39.4 433.252 35.6C434.892 31.8 437.132 28.46 439.972 25.58C442.852 22.66 446.172 20.38 449.932 18.74C453.692 17.1 457.732 16.28 462.052 16.28C465.772 16.28 469.052 17.1 471.892 18.74C474.732 20.34 477.092 22.46 478.972 25.1V17.84ZM462.232 65.3C465.312 65.3 468.032 64.52 470.392 62.96C472.792 61.36 474.672 59.24 476.032 56.6C477.392 53.92 478.072 51 478.072 47.84C478.072 44.64 477.372 41.72 475.972 39.08C474.612 36.44 472.732 34.32 470.332 32.72C467.972 31.12 465.272 30.32 462.232 30.32C459.232 30.32 456.492 31.12 454.012 32.72C451.532 34.28 449.552 36.38 448.072 39.02C446.592 41.66 445.852 44.6 445.852 47.84C445.852 51.08 446.592 54.02 448.072 56.66C449.552 59.3 451.532 61.4 454.012 62.96C456.492 64.52 459.232 65.3 462.232 65.3Z" fill="black"/>
<path d="M533.04 79.4C527.52 79.4 522.48 77.98 517.92 75.14C513.4 72.3 509.78 68.5 507.06 63.74C504.38 58.94 503.04 53.64 503.04 47.84C503.04 43.44 503.82 39.34 505.38 35.54C506.94 31.7 509.08 28.34 511.8 25.46C514.56 22.54 517.76 20.26 521.4 18.62C525.04 16.98 528.92 16.16 533.04 16.16C538.56 16.16 543.58 17.58 548.1 20.42C552.66 23.26 556.28 27.08 558.96 31.88C561.68 36.68 563.04 42 563.04 47.84C563.04 52.2 562.26 56.28 560.7 60.08C559.14 63.88 556.98 67.24 554.22 70.16C551.5 73.04 548.32 75.3 544.68 76.94C541.08 78.58 537.2 79.4 533.04 79.4ZM533.04 64.76C535.96 64.76 538.58 63.98 540.9 62.42C543.22 60.86 545.04 58.8 546.36 56.24C547.72 53.68 548.4 50.88 548.4 47.84C548.4 44.72 547.7 41.88 546.3 39.32C544.94 36.72 543.08 34.66 540.72 33.14C538.4 31.58 535.84 30.8 533.04 30.8C530.16 30.8 527.56 31.58 525.24 33.14C522.92 34.7 521.08 36.78 519.72 39.38C518.36 41.98 517.68 44.8 517.68 47.84C517.68 51 518.38 53.86 519.78 56.42C521.18 58.98 523.04 61.02 525.36 62.54C527.72 64.02 530.28 64.76 533.04 64.76Z" fill="black"/>
<path d="M627.342 39.92V77.84H612.702V43.76C612.702 41.4 612.122 39.26 610.962 37.34C609.802 35.38 608.242 33.84 606.282 32.72C604.362 31.56 602.222 30.98 599.862 30.98C597.502 30.98 595.342 31.56 593.382 32.72C591.462 33.84 589.922 35.38 588.762 37.34C587.642 39.26 587.082 41.4 587.082 43.76V77.84H572.442L572.382 17.84H587.022L587.082 23.18C589.122 21.02 591.562 19.32 594.402 18.08C597.242 16.8 600.302 16.16 603.582 16.16C607.942 16.16 611.922 17.24 615.522 19.4C619.122 21.52 621.982 24.38 624.102 27.98C626.262 31.54 627.342 35.52 627.342 39.92Z" fill="black"/>
<path d="M74.4181 0L99.6019 34.3413H49.6343L74.4181 0Z" fill="black"/>
<path d="M74.4181 0L99.6019 34.3413H49.6343L74.4181 0Z" fill="black"/>
<path d="M74.4181 0L99.6019 34.3413H49.6343L74.4181 0Z" fill="black"/>
<path d="M74.4549 120L49.271 34.3413L99.2386 34.3413L74.4549 120Z" fill="black"/>
<path d="M74.4549 120L49.271 34.3413L99.2386 34.3413L74.4549 120Z" fill="black"/>
<path d="M74.4549 120L49.271 34.3413L99.2386 34.3413L74.4549 120Z" fill="black"/>
<path d="M124.053 0L149.237 34.2635H99.269L124.053 0Z" fill="black"/>
<path d="M124.053 0L149.237 34.2635H99.269L124.053 0Z" fill="black"/>
<path d="M124.053 0L149.237 34.2635H99.269L124.053 0Z" fill="black"/>
<path d="M124.053 0L149.237 34.2635H99.269L124.053 0Z" fill="black"/>
<path d="M74.4518 119.922L99.269 34.2635L149.237 34.2635L74.4518 119.922Z" fill="black"/>
<path d="M74.4518 119.922L99.269 34.2635L149.237 34.2635L74.4518 119.922Z" fill="black"/>
<path d="M74.4518 119.922L99.269 34.2635L149.237 34.2635L74.4518 119.922Z" fill="black"/>
<path d="M74.4518 119.922L0.000114092 34.2635L49.9677 34.2635L74.4518 119.922Z" fill="black"/>
<path d="M74.4518 119.922L0.000114092 34.2635L49.9677 34.2635L74.4518 119.922Z" fill="black"/>
<path d="M74.4518 119.922L0.000114092 34.2635L49.9677 34.2635L74.4518 119.922Z" fill="black"/>
<path d="M24.7837 1.52588e-05L49.9676 34.2635H0L24.7837 1.52588e-05Z" fill="black"/>
<path d="M24.7837 1.52588e-05L49.9676 34.2635H0L24.7837 1.52588e-05Z" fill="black"/>
<path d="M24.7837 1.52588e-05L49.9676 34.2635H0L24.7837 1.52588e-05Z" fill="black"/>
<path d="M99.4346 34.2636L74.2854 0.000113763L124.253 0.000118256L99.4346 34.2636Z" fill="black"/>
<path d="M99.4346 34.2636L74.2854 0.000113763L124.253 0.000118256L99.4346 34.2636Z" fill="black"/>
<path d="M99.4346 34.2636L74.2854 0.000113763L124.253 0.000118256L99.4346 34.2636Z" fill="black"/>
<path d="M49.7997 34.2636L24.6505 0.000113763L74.618 0.000118256L49.7997 34.2636Z" fill="black"/>
<path d="M49.7997 34.2636L24.6505 0.000113763L74.618 0.000118256L49.7997 34.2636Z" fill="black"/>
<path d="M49.7997 34.2636L24.6505 0.000113763L74.618 0.000118256L49.7997 34.2636Z" fill="black"/>
</svg>
