<svg width="633" height="120" viewBox="0 0 633 120" fill="none" xmlns="http://www.w3.org/2000/svg">
<path d="M192.529 107.84H177.889V17.8399H192.529V25.4599C194.489 22.7399 196.889 20.5399 199.729 18.8599C202.609 17.1399 205.969 16.2799 209.809 16.2799C214.209 16.2799 218.309 17.0999 222.109 18.7399C225.909 20.3799 229.249 22.6599 232.129 25.5799C235.049 28.4599 237.309 31.7999 238.909 35.5999C240.549 39.3999 241.369 43.4799 241.369 47.8399C241.369 52.1999 240.549 56.2999 238.909 60.1399C237.309 63.9799 235.049 67.3599 232.129 70.2799C229.249 73.1599 225.909 75.4199 222.109 77.0599C218.309 78.6999 214.209 79.5199 209.809 79.5199C205.969 79.5199 202.609 78.6799 199.729 76.9999C196.889 75.2799 194.489 73.0599 192.529 70.3399V107.84ZM209.629 30.3799C206.589 30.3799 203.869 31.1799 201.469 32.7799C199.069 34.3399 197.189 36.4399 195.829 39.0799C194.469 41.7199 193.789 44.6399 193.789 47.8399C193.789 51.0399 194.469 53.9799 195.829 56.6599C197.189 59.2999 199.069 61.4199 201.469 63.0199C203.869 64.5799 206.589 65.3599 209.629 65.3599C212.709 65.3599 215.529 64.5799 218.089 63.0199C220.649 61.4599 222.689 59.3599 224.209 56.7199C225.729 54.0399 226.489 51.0799 226.489 47.8399C226.489 44.6399 225.729 41.7199 224.209 39.0799C222.689 36.4399 220.649 34.3399 218.089 32.7799C215.569 31.1799 212.749 30.3799 209.629 30.3799Z" fill="white"/>
<path d="M296.254 17.8399H310.894V77.8399H296.254L295.594 70.3999C293.954 73.0799 291.774 75.2599 289.054 76.9399C286.374 78.5799 283.194 79.3999 279.514 79.3999C275.074 79.3999 270.914 78.5599 267.034 76.8799C263.154 75.1999 259.734 72.8799 256.774 69.9199C253.854 66.9599 251.554 63.5399 249.874 59.6599C248.234 55.7799 247.414 51.6199 247.414 47.1799C247.414 42.8999 248.194 38.8799 249.754 35.1199C251.354 31.3599 253.574 28.0599 256.414 25.2199C259.254 22.3799 262.534 20.1599 266.254 18.5599C269.974 16.9599 273.974 16.1599 278.254 16.1599C282.214 16.1599 285.754 17.0399 288.874 18.7999C292.034 20.5599 294.714 22.7999 296.914 25.5199L296.254 17.8399ZM279.154 65.2999C282.274 65.2999 285.034 64.5199 287.434 62.9599C289.834 61.3999 291.714 59.2999 293.074 56.6599C294.434 53.9799 295.114 51.0399 295.114 47.8399C295.114 44.5999 294.434 41.6599 293.074 39.0199C291.714 36.3399 289.814 34.2199 287.374 32.6599C284.974 31.0999 282.234 30.3199 279.154 30.3199C276.074 30.3199 273.254 31.1199 270.694 32.7199C268.174 34.2799 266.154 36.3799 264.634 39.0199C263.154 41.6599 262.414 44.5999 262.414 47.8399C262.414 51.0799 263.174 54.0199 264.694 56.6599C266.214 59.2999 268.234 61.3999 270.754 62.9599C273.314 64.5199 276.114 65.2999 279.154 65.2999Z" fill="white"/>
<path d="M322.91 77.8399L322.85 17.8399H337.49L337.55 23.1799C339.59 21.0199 342.03 19.3199 344.87 18.0799C347.71 16.7999 350.77 16.1599 354.05 16.1599C356.25 16.1599 358.45 16.4799 360.65 17.1199L354.89 31.8799C353.37 31.2799 351.85 30.9799 350.33 30.9799C347.97 30.9799 345.81 31.5599 343.85 32.7199C341.93 33.8399 340.39 35.3799 339.23 37.3399C338.11 39.2599 337.55 41.3999 337.55 43.7599V77.8399H322.91Z" fill="white"/>
<path d="M409.809 17.8399H424.449V77.8399H409.809L409.149 70.3999C407.509 73.0799 405.329 75.2599 402.609 76.9399C399.929 78.5799 396.749 79.3999 393.069 79.3999C388.629 79.3999 384.469 78.5599 380.589 76.8799C376.709 75.1999 373.289 72.8799 370.329 69.9199C367.409 66.9599 365.109 63.5399 363.429 59.6599C361.789 55.7799 360.969 51.6199 360.969 47.1799C360.969 42.8999 361.749 38.8799 363.309 35.1199C364.909 31.3599 367.129 28.0599 369.969 25.2199C372.809 22.3799 376.089 20.1599 379.809 18.5599C383.529 16.9599 387.529 16.1599 391.809 16.1599C395.769 16.1599 399.309 17.0399 402.429 18.7999C405.589 20.5599 408.269 22.7999 410.469 25.5199L409.809 17.8399ZM392.709 65.2999C395.829 65.2999 398.589 64.5199 400.989 62.9599C403.389 61.3999 405.269 59.2999 406.629 56.6599C407.989 53.9799 408.669 51.0399 408.669 47.8399C408.669 44.5999 407.989 41.6599 406.629 39.0199C405.269 36.3399 403.369 34.2199 400.929 32.6599C398.529 31.0999 395.789 30.3199 392.709 30.3199C389.629 30.3199 386.809 31.1199 384.249 32.7199C381.729 34.2799 379.709 36.3799 378.189 39.0199C376.709 41.6599 375.969 44.5999 375.969 47.8399C375.969 51.0799 376.729 54.0199 378.249 56.6599C379.769 59.2999 381.789 61.3999 384.309 62.9599C386.869 64.5199 389.669 65.2999 392.709 65.2999Z" fill="white"/>
<path d="M479.753 17.8399H494.393V78.9799C494.393 83.2999 493.513 87.2199 491.753 90.7399C489.993 94.2999 487.593 97.3399 484.553 99.8599C481.513 102.42 478.033 104.38 474.113 105.74C470.193 107.14 466.073 107.84 461.753 107.84C457.553 107.84 453.513 106.98 449.633 105.26C445.753 103.54 442.313 101.18 439.313 98.1799C436.353 95.2199 434.093 91.8399 432.533 88.0399L445.913 81.9799C446.713 84.1799 447.913 86.0999 449.513 87.7399C451.153 89.4199 453.033 90.7199 455.153 91.6399C457.273 92.5999 459.473 93.0799 461.753 93.0799C464.073 93.0799 466.293 92.7599 468.413 92.1199C470.573 91.4799 472.513 90.5399 474.233 89.2999C475.953 88.0999 477.293 86.6199 478.253 84.8599C479.253 83.1399 479.753 81.1799 479.753 78.9799V70.5199C477.873 73.1599 475.513 75.2999 472.673 76.9399C469.833 78.5799 466.553 79.3999 462.833 79.3999C458.513 79.3999 454.473 78.5799 450.713 76.9399C446.953 75.2999 443.633 73.0399 440.753 70.1599C437.913 67.2399 435.673 63.8799 434.033 60.0799C432.433 56.2799 431.633 52.1999 431.633 47.8399C431.633 43.4799 432.433 39.3999 434.033 35.5999C435.673 31.7999 437.913 28.4599 440.753 25.5799C443.633 22.6599 446.953 20.3799 450.713 18.7399C454.473 17.0999 458.513 16.2799 462.833 16.2799C466.553 16.2799 469.833 17.0999 472.673 18.7399C475.513 20.3399 477.873 22.4599 479.753 25.0999V17.8399ZM463.013 65.2999C466.093 65.2999 468.813 64.5199 471.173 62.9599C473.573 61.3599 475.453 59.2399 476.813 56.5999C478.173 53.9199 478.853 50.9999 478.853 47.8399C478.853 44.6399 478.153 41.7199 476.753 39.0799C475.393 36.4399 473.513 34.3199 471.113 32.7199C468.753 31.1199 466.053 30.3199 463.013 30.3199C460.013 30.3199 457.273 31.1199 454.793 32.7199C452.313 34.2799 450.333 36.3799 448.853 39.0199C447.373 41.6599 446.633 44.5999 446.633 47.8399C446.633 51.0799 447.373 54.0199 448.853 56.6599C450.333 59.2999 452.313 61.3999 454.793 62.9599C457.273 64.5199 460.013 65.2999 463.013 65.2999Z" fill="white"/>
<path d="M533.82 79.3999C528.3 79.3999 523.26 77.9799 518.7 75.1399C514.18 72.2999 510.56 68.4999 507.84 63.7399C505.16 58.9399 503.82 53.6399 503.82 47.8399C503.82 43.4399 504.6 39.3399 506.16 35.5399C507.72 31.6999 509.86 28.3399 512.58 25.4599C515.34 22.5399 518.54 20.2599 522.18 18.6199C525.82 16.9799 529.7 16.1599 533.82 16.1599C539.34 16.1599 544.36 17.5799 548.88 20.4199C553.44 23.2599 557.06 27.0799 559.74 31.8799C562.46 36.6799 563.82 41.9999 563.82 47.8399C563.82 52.1999 563.04 56.2799 561.48 60.0799C559.92 63.8799 557.76 67.2399 555 70.1599C552.28 73.0399 549.1 75.2999 545.46 76.9399C541.86 78.5799 537.98 79.3999 533.82 79.3999ZM533.82 64.7599C536.74 64.7599 539.36 63.9799 541.68 62.4199C544 60.8599 545.82 58.7999 547.14 56.2399C548.5 53.6799 549.18 50.8799 549.18 47.8399C549.18 44.7199 548.48 41.8799 547.08 39.3199C545.72 36.7199 543.86 34.6599 541.5 33.1399C539.18 31.5799 536.62 30.7999 533.82 30.7999C530.94 30.7999 528.34 31.5799 526.02 33.1399C523.7 34.6999 521.86 36.7799 520.5 39.3799C519.14 41.9799 518.46 44.7999 518.46 47.8399C518.46 50.9999 519.16 53.8599 520.56 56.4199C521.96 58.9799 523.82 61.0199 526.14 62.5399C528.5 64.0199 531.06 64.7599 533.82 64.7599Z" fill="white"/>
<path d="M628.122 39.9199V77.8399H613.482V43.7599C613.482 41.3999 612.902 39.2599 611.742 37.3399C610.582 35.3799 609.022 33.8399 607.062 32.7199C605.142 31.5599 603.002 30.9799 600.642 30.9799C598.282 30.9799 596.122 31.5599 594.162 32.7199C592.242 33.8399 590.702 35.3799 589.542 37.3399C588.422 39.2599 587.862 41.3999 587.862 43.7599V77.8399H573.222L573.162 17.8399H587.802L587.862 23.1799C589.902 21.0199 592.342 19.3199 595.182 18.0799C598.022 16.7999 601.082 16.1599 604.362 16.1599C608.722 16.1599 612.702 17.2399 616.302 19.3999C619.902 21.5199 622.762 24.3799 624.882 27.9799C627.042 31.5399 628.122 35.5199 628.122 39.9199Z" fill="white"/>
<path d="M75.1986 0L100.382 34.3413H50.4149L75.1986 0Z" fill="url(#paint0_linear_32_141)"/>
<path d="M75.1986 0L100.382 34.3413H50.4149L75.1986 0Z" fill="#FA701A" fill-opacity="0.35"/>
<path d="M75.1986 0L100.382 34.3413H50.4149L75.1986 0Z" fill="white" fill-opacity="0.15"/>
<path d="M75.2354 120L50.0516 34.3413L100.019 34.3413L75.2354 120Z" fill="url(#paint1_linear_32_141)"/>
<path d="M75.2354 120L50.0516 34.3413L100.019 34.3413L75.2354 120Z" fill="#FA701A" fill-opacity="0.2"/>
<path d="M75.2354 120L50.0516 34.3413L100.019 34.3413L75.2354 120Z" fill="white" fill-opacity="0.1"/>
<path d="M124.833 0L150.017 34.2635H100.049L124.833 0Z" fill="url(#paint2_linear_32_141)"/>
<path d="M124.833 0L150.017 34.2635H100.049L124.833 0Z" fill="#A13E00" fill-opacity="0.3"/>
<path d="M124.833 0L150.017 34.2635H100.049L124.833 0Z" fill="white" fill-opacity="0.05"/>
<path d="M75.2323 119.922L100.05 34.2635L150.017 34.2635L75.2323 119.922Z" fill="url(#paint3_linear_32_141)"/>
<path d="M75.2323 119.922L100.05 34.2635L150.017 34.2635L75.2323 119.922Z" fill="#A13E00" fill-opacity="0.3"/>
<path d="M75.2323 119.922L0.780632 34.2635L50.7482 34.2635L75.2323 119.922Z" fill="url(#paint4_linear_32_141)"/>
<path d="M75.2323 119.922L0.780632 34.2635L50.7482 34.2635L75.2323 119.922Z" fill="#FA701A" fill-opacity="0.2"/>
<path d="M75.2323 119.922L0.780632 34.2635L50.7482 34.2635L75.2323 119.922Z" fill="white" fill-opacity="0.3"/>
<path d="M25.5642 0L50.7481 34.2635H0.780518L25.5642 0Z" fill="url(#paint5_linear_32_141)"/>
<path d="M25.5642 0L50.7481 34.2635H0.780518L25.5642 0Z" fill="#FA701A" fill-opacity="0.2"/>
<path d="M25.5642 0L50.7481 34.2635H0.780518L25.5642 0Z" fill="white" fill-opacity="0.5"/>
<path d="M100.215 34.2637L75.0659 0.000205315L125.033 0.000209808L100.215 34.2637Z" fill="url(#paint6_linear_32_141)"/>
<path d="M100.215 34.2637L75.0659 0.000205315L125.033 0.000209808L100.215 34.2637Z" fill="#FA701A" fill-opacity="0.2"/>
<path d="M100.215 34.2637L75.0659 0.000205315L125.033 0.000209808L100.215 34.2637Z" fill="url(#paint7_linear_32_141)" fill-opacity="0.25"/>
<path d="M50.5802 34.2637L25.431 0.000205315L75.3986 0.000209808L50.5802 34.2637Z" fill="url(#paint8_linear_32_141)"/>
<path d="M50.5802 34.2637L25.431 0.000205315L75.3986 0.000209808L50.5802 34.2637Z" fill="#FA701A" fill-opacity="0.2"/>
<path d="M50.5802 34.2637L25.431 0.000205315L75.3986 0.000209808L50.5802 34.2637Z" fill="white" fill-opacity="0.3"/>
<path d="M75.7426 0L101.111 34.3413H50.7776L75.7426 0Z" fill="url(#paint9_linear_32_141)" fill-opacity="0.5"/>
<path d="M75.7798 120L50.4118 34.3413L100.745 34.3413L75.7798 120Z" fill="url(#paint10_linear_32_141)" fill-opacity="0.5"/>
<path d="M125.74 0L151.108 34.2635H100.775L125.74 0Z" fill="url(#paint11_linear_32_141)" fill-opacity="0.5"/>
<path d="M75.7765 119.922L100.775 34.2635H151.108L75.7765 119.922Z" fill="url(#paint12_linear_32_141)" fill-opacity="0.5"/>
<path d="M75.7765 119.922L0.780518 34.2635L51.1135 34.2635L75.7765 119.922Z" fill="url(#paint13_linear_32_141)" fill-opacity="0.5"/>
<path d="M25.7454 5.0523e-06L51.1135 34.2635L0.780518 34.2635L25.7454 5.0523e-06Z" fill="url(#paint14_linear_32_141)" fill-opacity="0.5"/>
<path d="M100.942 34.2636L75.6089 0.000113917L125.942 0.00011841L100.942 34.2636Z" fill="url(#paint15_linear_32_141)" fill-opacity="0.5"/>
<path d="M50.9444 34.2636L25.6112 0.000113282L75.9442 0.000117775L50.9444 34.2636Z" fill="url(#paint16_linear_32_141)" fill-opacity="0.5"/>
<defs>
<linearGradient id="paint0_linear_32_141" x1="75.3986" y1="-5.95718" x2="75.3986" y2="39.695" gradientUnits="userSpaceOnUse">
<stop stop-color="#FF7621"/>
<stop offset="1" stop-color="#FF9A5C"/>
</linearGradient>
<linearGradient id="paint1_linear_32_141" x1="75.0353" y1="120" x2="75.0353" y2="34.3413" gradientUnits="userSpaceOnUse">
<stop stop-color="#FFA872"/>
<stop offset="1" stop-color="#FF6F15"/>
</linearGradient>
<linearGradient id="paint2_linear_32_141" x1="100.049" y1="34.2635" x2="150.017" y2="34.2635" gradientUnits="userSpaceOnUse">
<stop stop-color="#FF9A5C"/>
<stop offset="1" stop-color="#FF7621"/>
</linearGradient>
<linearGradient id="paint3_linear_32_141" x1="150.017" y1="34.2635" x2="73.0603" y2="117.767" gradientUnits="userSpaceOnUse">
<stop stop-color="#FF7621"/>
<stop offset="1" stop-color="#FF883E"/>
</linearGradient>
<linearGradient id="paint4_linear_32_141" x1="0.780629" y1="34.2635" x2="77.7374" y2="117.767" gradientUnits="userSpaceOnUse">
<stop stop-color="#FF7621"/>
<stop offset="1" stop-color="#FF883E"/>
</linearGradient>
<linearGradient id="paint5_linear_32_141" x1="50.7481" y1="34.2635" x2="0.780517" y2="34.2635" gradientUnits="userSpaceOnUse">
<stop stop-color="#FF9A5C"/>
<stop offset="1" stop-color="#FF7621"/>
</linearGradient>
<linearGradient id="paint6_linear_32_141" x1="99.9283" y1="106.295" x2="100.05" y2="0.000208865" gradientUnits="userSpaceOnUse">
<stop stop-color="#FF7621"/>
<stop offset="1" stop-color="#FF873D"/>
</linearGradient>
<linearGradient id="paint7_linear_32_141" x1="88.345" y1="14.309" x2="78.8057" y2="76.9956" gradientUnits="userSpaceOnUse">
<stop stop-color="white"/>
<stop offset="0.459154" stop-color="white" stop-opacity="0"/>
</linearGradient>
<linearGradient id="paint8_linear_32_141" x1="50.4148" y1="34.2637" x2="50.4148" y2="0.000207562" gradientUnits="userSpaceOnUse">
<stop stop-color="#FF7621"/>
<stop offset="1" stop-color="#FF873D"/>
</linearGradient>
<linearGradient id="paint9_linear_32_141" x1="222.211" y1="146.054" x2="-25.2197" y2="-37.0889" gradientUnits="userSpaceOnUse">
<stop stop-color="#FF7A00" stop-opacity="0"/>
<stop offset="1" stop-color="#FFD600"/>
</linearGradient>
<linearGradient id="paint10_linear_32_141" x1="222.211" y1="146.054" x2="-25.2197" y2="-37.0889" gradientUnits="userSpaceOnUse">
<stop stop-color="#FF7A00" stop-opacity="0"/>
<stop offset="1" stop-color="#FFD600"/>
</linearGradient>
<linearGradient id="paint11_linear_32_141" x1="222.211" y1="146.054" x2="-25.2197" y2="-37.0889" gradientUnits="userSpaceOnUse">
<stop stop-color="#FF7A00" stop-opacity="0"/>
<stop offset="1" stop-color="#FFD600"/>
</linearGradient>
<linearGradient id="paint12_linear_32_141" x1="222.211" y1="146.054" x2="-25.2197" y2="-37.0889" gradientUnits="userSpaceOnUse">
<stop stop-color="#FF7A00" stop-opacity="0"/>
<stop offset="1" stop-color="#FFD600"/>
</linearGradient>
<linearGradient id="paint13_linear_32_141" x1="222.211" y1="146.054" x2="-25.2197" y2="-37.0889" gradientUnits="userSpaceOnUse">
<stop stop-color="#FF7A00" stop-opacity="0"/>
<stop offset="1" stop-color="#FFD600"/>
</linearGradient>
<linearGradient id="paint14_linear_32_141" x1="222.211" y1="146.054" x2="-25.2197" y2="-37.0889" gradientUnits="userSpaceOnUse">
<stop stop-color="#FF7A00" stop-opacity="0"/>
<stop offset="1" stop-color="#FFD600"/>
</linearGradient>
<linearGradient id="paint15_linear_32_141" x1="222.211" y1="146.054" x2="-25.2197" y2="-37.0889" gradientUnits="userSpaceOnUse">
<stop stop-color="#FF7A00" stop-opacity="0"/>
<stop offset="1" stop-color="#FFD600"/>
</linearGradient>
<linearGradient id="paint16_linear_32_141" x1="222.211" y1="146.054" x2="-25.2197" y2="-37.0889" gradientUnits="userSpaceOnUse">
<stop stop-color="#FF7A00" stop-opacity="0"/>
<stop offset="1" stop-color="#FFD600"/>
</linearGradient>
</defs>
</svg>
