<svg width="632" height="120" viewBox="0 0 632 120" fill="none" xmlns="http://www.w3.org/2000/svg">
<path d="M191.748 107.84H177.108V17.8399H191.748V25.4599C193.708 22.7399 196.108 20.5399 198.948 18.8599C201.828 17.1399 205.188 16.2799 209.028 16.2799C213.428 16.2799 217.528 17.0999 221.328 18.7399C225.128 20.3799 228.468 22.6599 231.348 25.5799C234.268 28.4599 236.528 31.7999 238.128 35.5999C239.768 39.3999 240.588 43.4799 240.588 47.8399C240.588 52.1999 239.768 56.2999 238.128 60.1399C236.528 63.9799 234.268 67.3599 231.348 70.2799C228.468 73.1599 225.128 75.4199 221.328 77.0599C217.528 78.6999 213.428 79.5199 209.028 79.5199C205.188 79.5199 201.828 78.6799 198.948 76.9999C196.108 75.2799 193.708 73.0599 191.748 70.3399V107.84ZM208.848 30.3799C205.808 30.3799 203.088 31.1799 200.688 32.7799C198.288 34.3399 196.408 36.4399 195.048 39.0799C193.688 41.7199 193.008 44.6399 193.008 47.8399C193.008 51.0399 193.688 53.9799 195.048 56.6599C196.408 59.2999 198.288 61.4199 200.688 63.0199C203.088 64.5799 205.808 65.3599 208.848 65.3599C211.928 65.3599 214.748 64.5799 217.308 63.0199C219.868 61.4599 221.908 59.3599 223.428 56.7199C224.948 54.0399 225.708 51.0799 225.708 47.8399C225.708 44.6399 224.948 41.7199 223.428 39.0799C221.908 36.4399 219.868 34.3399 217.308 32.7799C214.788 31.1799 211.968 30.3799 208.848 30.3799Z" fill="white"/>
<path d="M295.473 17.8399H310.113V77.8399H295.473L294.813 70.3999C293.173 73.0799 290.993 75.2599 288.273 76.9399C285.593 78.5799 282.413 79.3999 278.733 79.3999C274.293 79.3999 270.133 78.5599 266.253 76.8799C262.373 75.1999 258.953 72.8799 255.993 69.9199C253.073 66.9599 250.773 63.5399 249.093 59.6599C247.453 55.7799 246.633 51.6199 246.633 47.1799C246.633 42.8999 247.413 38.8799 248.973 35.1199C250.573 31.3599 252.793 28.0599 255.633 25.2199C258.473 22.3799 261.753 20.1599 265.473 18.5599C269.193 16.9599 273.193 16.1599 277.473 16.1599C281.433 16.1599 284.973 17.0399 288.093 18.7999C291.253 20.5599 293.933 22.7999 296.133 25.5199L295.473 17.8399ZM278.373 65.2999C281.493 65.2999 284.253 64.5199 286.653 62.9599C289.053 61.3999 290.933 59.2999 292.293 56.6599C293.653 53.9799 294.333 51.0399 294.333 47.8399C294.333 44.5999 293.653 41.6599 292.293 39.0199C290.933 36.3399 289.033 34.2199 286.593 32.6599C284.193 31.0999 281.453 30.3199 278.373 30.3199C275.293 30.3199 272.473 31.1199 269.913 32.7199C267.393 34.2799 265.373 36.3799 263.853 39.0199C262.373 41.6599 261.633 44.5999 261.633 47.8399C261.633 51.0799 262.393 54.0199 263.913 56.6599C265.433 59.2999 267.453 61.3999 269.973 62.9599C272.533 64.5199 275.333 65.2999 278.373 65.2999Z" fill="white"/>
<path d="M322.129 77.8399L322.069 17.8399H336.709L336.769 23.1799C338.809 21.0199 341.249 19.3199 344.089 18.0799C346.929 16.7999 349.989 16.1599 353.269 16.1599C355.469 16.1599 357.669 16.4799 359.869 17.1199L354.109 31.8799C352.589 31.2799 351.069 30.9799 349.549 30.9799C347.189 30.9799 345.029 31.5599 343.069 32.7199C341.149 33.8399 339.609 35.3799 338.449 37.3399C337.329 39.2599 336.769 41.3999 336.769 43.7599V77.8399H322.129Z" fill="white"/>
<path d="M409.028 17.8399H423.668V77.8399H409.028L408.368 70.3999C406.728 73.0799 404.548 75.2599 401.828 76.9399C399.148 78.5799 395.968 79.3999 392.288 79.3999C387.848 79.3999 383.688 78.5599 379.808 76.8799C375.928 75.1999 372.508 72.8799 369.548 69.9199C366.628 66.9599 364.328 63.5399 362.648 59.6599C361.008 55.7799 360.188 51.6199 360.188 47.1799C360.188 42.8999 360.968 38.8799 362.528 35.1199C364.128 31.3599 366.348 28.0599 369.188 25.2199C372.028 22.3799 375.308 20.1599 379.028 18.5599C382.748 16.9599 386.748 16.1599 391.028 16.1599C394.988 16.1599 398.528 17.0399 401.648 18.7999C404.808 20.5599 407.488 22.7999 409.688 25.5199L409.028 17.8399ZM391.928 65.2999C395.048 65.2999 397.808 64.5199 400.208 62.9599C402.608 61.3999 404.488 59.2999 405.848 56.6599C407.208 53.9799 407.888 51.0399 407.888 47.8399C407.888 44.5999 407.208 41.6599 405.848 39.0199C404.488 36.3399 402.588 34.2199 400.148 32.6599C397.748 31.0999 395.008 30.3199 391.928 30.3199C388.848 30.3199 386.028 31.1199 383.468 32.7199C380.948 34.2799 378.928 36.3799 377.408 39.0199C375.928 41.6599 375.188 44.5999 375.188 47.8399C375.188 51.0799 375.948 54.0199 377.468 56.6599C378.988 59.2999 381.008 61.3999 383.528 62.9599C386.088 64.5199 388.888 65.2999 391.928 65.2999Z" fill="white"/>
<path d="M478.972 17.8399H493.612V78.9799C493.612 83.2999 492.732 87.2199 490.972 90.7399C489.212 94.2999 486.812 97.3399 483.772 99.8599C480.732 102.42 477.252 104.38 473.332 105.74C469.412 107.14 465.292 107.84 460.972 107.84C456.772 107.84 452.732 106.98 448.852 105.26C444.972 103.54 441.532 101.18 438.532 98.1799C435.572 95.2199 433.312 91.8399 431.752 88.0399L445.132 81.9799C445.932 84.1799 447.132 86.0999 448.732 87.7399C450.372 89.4199 452.252 90.7199 454.372 91.6399C456.492 92.5999 458.692 93.0799 460.972 93.0799C463.292 93.0799 465.512 92.7599 467.632 92.1199C469.792 91.4799 471.732 90.5399 473.452 89.2999C475.172 88.0999 476.512 86.6199 477.472 84.8599C478.472 83.1399 478.972 81.1799 478.972 78.9799V70.5199C477.092 73.1599 474.732 75.2999 471.892 76.9399C469.052 78.5799 465.772 79.3999 462.052 79.3999C457.732 79.3999 453.692 78.5799 449.932 76.9399C446.172 75.2999 442.852 73.0399 439.972 70.1599C437.132 67.2399 434.892 63.8799 433.252 60.0799C431.652 56.2799 430.852 52.1999 430.852 47.8399C430.852 43.4799 431.652 39.3999 433.252 35.5999C434.892 31.7999 437.132 28.4599 439.972 25.5799C442.852 22.6599 446.172 20.3799 449.932 18.7399C453.692 17.0999 457.732 16.2799 462.052 16.2799C465.772 16.2799 469.052 17.0999 471.892 18.7399C474.732 20.3399 477.092 22.4599 478.972 25.0999V17.8399ZM462.232 65.2999C465.312 65.2999 468.032 64.5199 470.392 62.9599C472.792 61.3599 474.672 59.2399 476.032 56.5999C477.392 53.9199 478.072 50.9999 478.072 47.8399C478.072 44.6399 477.372 41.7199 475.972 39.0799C474.612 36.4399 472.732 34.3199 470.332 32.7199C467.972 31.1199 465.272 30.3199 462.232 30.3199C459.232 30.3199 456.492 31.1199 454.012 32.7199C451.532 34.2799 449.552 36.3799 448.072 39.0199C446.592 41.6599 445.852 44.5999 445.852 47.8399C445.852 51.0799 446.592 54.0199 448.072 56.6599C449.552 59.2999 451.532 61.3999 454.012 62.9599C456.492 64.5199 459.232 65.2999 462.232 65.2999Z" fill="white"/>
<path d="M533.04 79.3999C527.52 79.3999 522.48 77.9799 517.92 75.1399C513.4 72.2999 509.78 68.4999 507.06 63.7399C504.38 58.9399 503.04 53.6399 503.04 47.8399C503.04 43.4399 503.82 39.3399 505.38 35.5399C506.94 31.6999 509.08 28.3399 511.8 25.4599C514.56 22.5399 517.76 20.2599 521.4 18.6199C525.04 16.9799 528.92 16.1599 533.04 16.1599C538.56 16.1599 543.58 17.5799 548.1 20.4199C552.66 23.2599 556.28 27.0799 558.96 31.8799C561.68 36.6799 563.04 41.9999 563.04 47.8399C563.04 52.1999 562.26 56.2799 560.7 60.0799C559.14 63.8799 556.98 67.2399 554.22 70.1599C551.5 73.0399 548.32 75.2999 544.68 76.9399C541.08 78.5799 537.2 79.3999 533.04 79.3999ZM533.04 64.7599C535.96 64.7599 538.58 63.9799 540.9 62.4199C543.22 60.8599 545.04 58.7999 546.36 56.2399C547.72 53.6799 548.4 50.8799 548.4 47.8399C548.4 44.7199 547.7 41.8799 546.3 39.3199C544.94 36.7199 543.08 34.6599 540.72 33.1399C538.4 31.5799 535.84 30.7999 533.04 30.7999C530.16 30.7999 527.56 31.5799 525.24 33.1399C522.92 34.6999 521.08 36.7799 519.72 39.3799C518.36 41.9799 517.68 44.7999 517.68 47.8399C517.68 50.9999 518.38 53.8599 519.78 56.4199C521.18 58.9799 523.04 61.0199 525.36 62.5399C527.72 64.0199 530.28 64.7599 533.04 64.7599Z" fill="white"/>
<path d="M627.342 39.9199V77.8399H612.702V43.7599C612.702 41.3999 612.122 39.2599 610.962 37.3399C609.802 35.3799 608.242 33.8399 606.282 32.7199C604.362 31.5599 602.222 30.9799 599.862 30.9799C597.502 30.9799 595.342 31.5599 593.382 32.7199C591.462 33.8399 589.922 35.3799 588.762 37.3399C587.642 39.2599 587.082 41.3999 587.082 43.7599V77.8399H572.442L572.382 17.8399H587.022L587.082 23.1799C589.122 21.0199 591.562 19.3199 594.402 18.0799C597.242 16.7999 600.302 16.1599 603.582 16.1599C607.942 16.1599 611.922 17.2399 615.522 19.3999C619.122 21.5199 621.982 24.3799 624.102 27.9799C626.262 31.5399 627.342 35.5199 627.342 39.9199Z" fill="white"/>
<path d="M74.4181 0L99.6019 34.3413H49.6343L74.4181 0Z" fill="white"/>
<path d="M74.4181 0L99.6019 34.3413H49.6343L74.4181 0Z" fill="white"/>
<path d="M74.4181 0L99.6019 34.3413H49.6343L74.4181 0Z" fill="white"/>
<path d="M74.4549 120L49.271 34.3413L99.2386 34.3413L74.4549 120Z" fill="white"/>
<path d="M74.4549 120L49.271 34.3413L99.2386 34.3413L74.4549 120Z" fill="white"/>
<path d="M74.4549 120L49.271 34.3413L99.2386 34.3413L74.4549 120Z" fill="white"/>
<path d="M124.053 0L149.237 34.2635H99.269L124.053 0Z" fill="white"/>
<path d="M124.053 0L149.237 34.2635H99.269L124.053 0Z" fill="white"/>
<path d="M124.053 0L149.237 34.2635H99.269L124.053 0Z" fill="white"/>
<path d="M124.053 0L149.237 34.2635H99.269L124.053 0Z" fill="white"/>
<path d="M74.4518 119.922L99.269 34.2635L149.237 34.2635L74.4518 119.922Z" fill="white"/>
<path d="M74.4518 119.922L99.269 34.2635L149.237 34.2635L74.4518 119.922Z" fill="white"/>
<path d="M74.4518 119.922L99.269 34.2635L149.237 34.2635L74.4518 119.922Z" fill="white"/>
<path d="M74.4518 119.922L0.000114092 34.2635L49.9677 34.2635L74.4518 119.922Z" fill="white"/>
<path d="M74.4518 119.922L0.000114092 34.2635L49.9677 34.2635L74.4518 119.922Z" fill="white"/>
<path d="M74.4518 119.922L0.000114092 34.2635L49.9677 34.2635L74.4518 119.922Z" fill="white"/>
<path d="M24.7837 0L49.9676 34.2635H0L24.7837 0Z" fill="white"/>
<path d="M24.7837 0L49.9676 34.2635H0L24.7837 0Z" fill="white"/>
<path d="M24.7837 0L49.9676 34.2635H0L24.7837 0Z" fill="white"/>
<path d="M99.4346 34.2635L74.2854 8.32449e-05L124.253 8.7738e-05L99.4346 34.2635Z" fill="white"/>
<path d="M99.4346 34.2635L74.2854 8.32449e-05L124.253 8.7738e-05L99.4346 34.2635Z" fill="white"/>
<path d="M99.4346 34.2635L74.2854 8.32449e-05L124.253 8.7738e-05L99.4346 34.2635Z" fill="white"/>
<path d="M49.7997 34.2635L24.6505 8.32449e-05L74.618 8.7738e-05L49.7997 34.2635Z" fill="white"/>
<path d="M49.7997 34.2635L24.6505 8.32449e-05L74.618 8.7738e-05L49.7997 34.2635Z" fill="white"/>
<path d="M49.7997 34.2635L24.6505 8.32449e-05L74.618 8.7738e-05L49.7997 34.2635Z" fill="white"/>
</svg>
